# xmcd
#
# Track frame offsets:
#	150
#	21001
#	34159
#	47629
#	65996
#	80910
#	98194
#	112419
#	128074
#	143839
#	161861
#
# Disc length: 2377 seconds
#
# Revision: 2
# Processed by: cddbd v1.5.2PL0 Copyright (c) Steve Scherf et al.
# Submitted via: EZCDAudioConverter 7.1.1.1
#
DISCID=a409470b
DTITLE=Tracy Lawrence - Headlights, Taillights And Radios
DYEAR=2013
DGENRE=Country
TTITLE0=Footprints On The Moon
TTITLE1=Stop Drop And Roll
TTITLE2=Where I Used To Live
TTITLE3=Lie
TTITLE4=Blacktop
TTITLE5=Good Girl
TTITLE6=Cecil's Palace
TTITLE7=Cloud Of Dust
TTITLE8=The Other Side Of 35
TTITLE9=Saving Savannah
TTITLE10=Butterfly
EXTD=
EXTT0=
EXTT1=
EXTT2=
EXTT3=
EXTT4=
EXTT5=
EXTT6=
EXTT7=
EXTT8=
EXTT9=
EXTT10=
PLAYORDER=
